<svg preserveAspectRatio="none" overflow="visible" style="display: block;" width="121" height="121" viewBox="0 0 121 121" fill="none" xmlns="http://www.w3.org/2000/svg">
<g id="Group 35">
<circle id="Ellipse 1" opacity="0.7" cx="60.5" cy="60.5" r="60" fill="#286637" stroke="#286637"/>
<path id="Vector" d="M50.5028 33.0909C51.2742 33.5452 51.8736 34.1093 52.5015 34.7434C52.6049 34.8466 52.7083 34.9498 52.8149 35.0561C53.16 35.4009 53.504 35.7467 53.848 36.0926C54.0957 36.3405 54.3434 36.5883 54.5912 36.836C55.2631 37.5082 55.934 38.1814 56.6048 38.8548C57.3066 39.5592 58.0092 40.2628 58.7117 40.9666C59.9664 42.2239 61.2204 43.482 62.474 44.7404C63.6107 45.8814 64.7482 47.0215 65.8863 48.161C67.2086 49.485 68.5304 50.8095 69.8513 52.1347C70.5504 52.836 71.2497 53.5371 71.9495 54.2377C72.607 54.896 73.2638 55.555 73.92 56.2147C74.1612 56.4569 74.4027 56.6989 74.6445 56.9406C74.9738 57.27 75.3022 57.6002 75.6303 57.9308C75.7268 58.0268 75.8232 58.1228 75.9226 58.2216C76.0542 58.3548 76.0542 58.3548 76.1885 58.4907C76.2644 58.5668 76.3403 58.643 76.4185 58.7214C76.8885 59.2849 76.9774 59.7736 76.9866 60.4989C76.991 60.656 76.9955 60.813 77 60.9749C76.8434 62.0205 75.999 62.7416 75.28 63.4572C75.1256 63.6127 75.1256 63.6127 74.9681 63.7713C74.6242 64.1173 74.2792 64.4622 73.9342 64.8071C73.687 65.0554 73.4398 65.3037 73.1927 65.5521C72.5222 66.2258 71.8507 66.8984 71.179 67.5708C70.4764 68.2744 69.7745 68.9788 69.0725 69.683C67.8184 70.941 66.5635 72.1981 65.3082 73.4549C64.1702 74.5945 63.0329 75.7348 61.8962 76.8758C60.5756 78.2015 59.2545 79.5266 57.9326 80.8509C57.233 81.5517 56.5337 82.2527 55.8349 82.9543C55.1783 83.6135 54.5209 84.2719 53.8629 84.9298C53.6213 85.1716 53.3799 85.4137 53.1388 85.6561C52.8103 85.9863 52.4808 86.3155 52.1511 86.6445C52.0554 86.7412 51.9597 86.8379 51.861 86.9375C51.7724 87.0255 51.6839 87.1134 51.5926 87.2041C51.5167 87.2802 51.4408 87.3562 51.3625 87.4346C50.6586 88.0247 49.9768 88.0118 49.0904 87.9945C48.2663 87.9059 47.8851 87.5128 47.3356 86.9328C46.9706 86.1446 46.9321 85.3718 47.083 84.5174C47.5197 83.7781 48.0432 83.1993 48.647 82.6002C48.7409 82.5059 48.8347 82.4115 48.9314 82.3143C49.2445 81.9999 49.5587 81.6866 49.8729 81.3733C50.0982 81.1475 50.3234 80.9217 50.5486 80.6958C51.159 80.0837 51.7704 79.4726 52.382 78.8617C53.0213 78.2227 53.6597 77.5828 54.2983 76.943C55.5071 75.7321 56.7168 74.522 57.9267 73.3121C59.3043 71.9345 60.681 70.556 62.0577 69.1774C64.8892 66.342 67.7218 63.5077 70.5551 60.6742C70.3008 60.0246 69.827 59.591 69.3415 59.1104C69.2481 59.0167 69.1547 58.9231 69.0586 58.8266C68.7452 58.5127 68.4307 58.1999 68.1163 57.8871C67.8915 57.6624 67.6669 57.4376 67.4423 57.2127C66.9583 56.7285 66.4739 56.2448 65.9891 55.7615C65.2228 54.9975 64.4578 54.2324 63.6929 53.467C62.0692 51.8427 60.4442 50.2197 58.8191 48.5968C57.0647 46.8448 55.3106 45.0927 53.558 43.339C52.7972 42.5779 52.0358 41.8176 51.2737 41.0578C50.8002 40.5854 50.3273 40.1124 49.8547 39.6392C49.635 39.4196 49.415 39.2002 49.1948 38.9811C48.8947 38.6825 48.5956 38.3829 48.2967 38.0831C48.2089 37.9962 48.1211 37.9093 48.0306 37.8198C47.3048 37.0883 47.0378 36.634 47.0247 35.6038C47.0405 34.7922 47.1297 34.3211 47.7048 33.7142C48.5017 32.9553 49.4543 32.9048 50.5028 33.0909Z" fill="#FFFDE9"/>
</g>
</svg>
