<svg preserveAspectRatio="none" overflow="visible" style="display: block;" width="39.4922" height="31.52" viewBox="0 0 39.4922 31.52" fill="none" xmlns="http://www.w3.org/2000/svg">
<path id="Vector" d="M19.7461 26.64C20.299 26.64 21.102 26.6133 22.1551 26.56C23.6295 26.48 25.1039 26.3733 26.5783 26.24C29.2374 26 31.8702 25.56 34.4767 24.92L32.6996 28.32C32.2257 29.3067 31.528 30.0867 30.6065 30.66C29.685 31.2333 28.6845 31.52 27.6051 31.52H11.9267C10.8472 31.52 9.84673 31.24 8.92525 30.68C8.00376 30.12 7.2929 29.3467 6.79267 28.36L5.01551 24.88C6.7795 25.3867 8.55665 25.76 10.347 26C13.4537 26.4267 16.5867 26.64 19.7461 26.64ZM33.7264 6.84C35.0954 6.84 36.3065 7.28 37.3597 8.16C38.4128 9.04 39.0842 10.16 39.3738 11.52H29.6982C29.3822 11.52 29.1124 11.6333 28.8886 11.86C28.6648 12.0867 28.5529 12.36 28.5529 12.68C28.5529 13.4267 28.6845 14.1467 28.9478 14.84C29.2111 15.5333 29.5929 16.16 30.0931 16.72C30.646 17.3067 31.291 17.76 32.0282 18.08C32.7654 18.4 33.5289 18.56 34.3188 18.56H39.1763C38.8867 19.3867 38.4325 20.1133 37.8138 20.74C37.1951 21.3667 36.4645 21.8267 35.622 22.12C34.0686 22.6533 32.0545 23.1067 29.5797 23.48C27.6841 23.7733 25.6305 24 23.4189 24.16C21.8129 24.2667 20.5886 24.32 19.7461 24.32C14.2435 24.48 8.87259 23.6933 3.63329 21.96C2.86977 21.6667 2.20498 21.22 1.63893 20.62C1.07287 20.02 0.64504 19.3333 0.35543 18.56H5.17348C5.96333 18.56 6.72685 18.4 7.46403 18.08C8.20122 17.76 8.84626 17.3067 9.39915 16.72C9.89939 16.16 10.2811 15.5333 10.5444 14.84C10.8077 14.1467 10.9394 13.4267 10.9394 12.68C10.9394 12.36 10.8275 12.0867 10.6037 11.86C10.3799 11.6333 10.11 11.52 9.79408 11.52H0.118477C0.381758 10.16 1.05313 9.03333 2.13258 8.14C3.21204 7.24667 4.4363 6.8 5.80536 6.8H13.2694V13.76C13.2694 14.72 13.6117 15.5467 14.2962 16.24C14.9807 16.9333 15.7969 17.28 16.7447 17.28H22.7475C23.6953 17.28 24.5115 16.9333 25.1961 16.24C25.8806 15.5467 26.2228 14.72 26.2228 13.76V6.8H33.7264V6.84ZM5.17348 16.2H0V13.84H8.45134C8.21439 14.56 7.79314 15.14 7.18759 15.58C6.58204 16.02 5.91067 16.2267 5.17348 16.2ZM34.3188 16.2C33.5816 16.2267 32.9102 16.02 32.3047 15.58C31.6991 15.14 31.2779 14.56 31.0409 13.84H39.4922V16.2H34.3188ZM22.7475 14.96H16.7447C16.4288 14.96 16.1589 14.8467 15.9351 14.62C15.7113 14.3933 15.5994 14.12 15.5994 13.8V6.84H23.9323V13.8C23.9323 14.12 23.8138 14.3933 23.5769 14.62C23.3399 14.8467 23.0635 14.96 22.7475 14.96ZM0.0789845 6.88L0 6.96V3.56C0 2.6 0.342266 1.77333 1.0268 1.08C1.71133 0.386667 2.5275 0.04 3.47532 0.04H8.09591C9.04372 0.04 9.8599 0.386667 10.5444 1.08C11.229 1.77333 11.5712 2.6 11.5712 3.56V4.48H5.80536C4.7259 4.48 3.69252 4.68667 2.70522 5.1C1.71791 5.51333 0.842501 6.10667 0.0789845 6.88ZM27.921 4.48V3.52C27.921 2.56 28.2633 1.73333 28.9478 1.04C29.6323 0.346667 30.4485 0 31.3963 0H36.0169C36.9647 0 37.7809 0.346667 38.4654 1.04C39.15 1.73333 39.4922 2.56 39.4922 3.52V6.96C38.7287 6.16 37.8467 5.54667 36.8463 5.12C35.8458 4.69333 34.8058 4.48 33.7264 4.48H27.921Z" fill="#FFFDE9"/>
</svg>
