<svg preserveAspectRatio="none" overflow="visible" style="display: block;" width="30" height="39" viewBox="0 0 30 39" fill="none" xmlns="http://www.w3.org/2000/svg">
<path id="Vector" d="M24.9536 3.72914C26.5673 5.20961 27.7782 6.81505 28.7116 8.78676C28.7544 8.87536 28.7973 8.96396 28.8415 9.05525C30.3838 12.4026 30.3193 16.1101 29.0444 19.5164C28.7721 20.2155 28.464 20.8985 28.1492 21.5797C28.0959 21.6975 28.0425 21.8152 27.9892 21.9329C27.4022 23.2128 26.6924 24.4324 25.9802 25.647C25.9384 25.7185 25.8966 25.79 25.8535 25.8637C25.0912 27.1527 24.2586 28.399 23.4195 29.6399C23.3739 29.7074 23.3283 29.775 23.2813 29.8446C22.3057 31.2889 21.3049 32.7096 20.2574 34.104C20.113 34.297 19.9694 34.4905 19.8261 34.6843C19.3351 35.3479 18.8391 36.006 18.3208 36.6491C18.1711 36.8348 18.0243 37.0224 17.879 37.2115C17.2401 38.0394 16.6203 38.7724 15.5367 38.9813C14.5894 39.0541 13.7852 38.93 13.0366 38.3242C12.511 37.8454 12.0923 37.2827 11.6685 36.717C11.3545 36.2977 11.0322 35.8856 10.7066 35.4752C10.2739 34.928 9.85944 34.3715 9.45548 33.8034C9.30175 33.5889 9.14516 33.3765 8.98879 33.1639C6.96955 30.4152 5.03577 27.5757 3.37763 24.5979C3.2877 24.4365 3.1973 24.2753 3.10651 24.1144C0.692432 19.833 -0.869617 15.4878 0.525445 10.6075C1.05675 8.86796 1.89702 7.28882 3.00452 5.84677C3.05754 5.7764 3.11056 5.70603 3.16519 5.63353C4.65632 3.74095 6.58923 2.30573 8.7886 1.31758C8.84819 1.29075 8.90777 1.26391 8.96916 1.23626C14.2058 -1.07691 20.7009 -0.0870911 24.9536 3.72914ZM9.40029 9.42938C8.07622 10.9811 7.61245 12.9123 7.74425 14.9051C7.97527 16.8111 8.97415 18.4333 10.4351 19.6774C12.0164 20.89 13.9604 21.4236 15.9414 21.1961C17.4284 20.9893 18.7555 20.3393 19.8748 19.3549C19.9347 19.303 19.9947 19.2512 20.0565 19.1978C21.3662 17.9905 22.1419 16.2457 22.2324 14.4849C22.2849 12.5996 21.7579 10.8277 20.4773 9.39761C20.3574 9.27283 20.237 9.14864 20.1158 9.02514C20.0666 8.97065 20.0174 8.91616 19.9667 8.86001C18.7957 7.60548 16.9679 6.94925 15.2747 6.86701C12.9672 6.81216 10.9308 7.72964 9.40029 9.42938Z" fill="#FFFDE9"/>
</svg>
